<svg width="24" height="24" viewBox="0 0 24 24" xmlns="http://www.w3.org/2000/svg" xmlns:xlink="http://www.w3.org/1999/xlink" overflow="hidden"><path d="M16.871 4.312C16.589 3.548 15.861 3 15 3 13.702 3 12.687 4.244 13.096 5.582 14.207 5.187 15.442 4.479 16.871 4.312ZM13 13C13 12.448 12.553 12 12 12 11.447 12 11 12.448 11 13 11 13.552 11.447 14 12 14 12.553 14 13 13.552 13 13ZM18.318 17.873C19.781 17.562 20.789 16.383 20.464 14.646 21.863 16.163 20.309 18.595 18.318 17.873ZM4.317 17.873C5.78 17.562 6.788 16.383 6.463 14.646 7.862 16.163 6.307 18.595 4.317 17.873ZM9 3C8.139 3 7.411 3.548 7.129 4.312 8.558 4.48 9.793 5.187 10.904 5.582 11.313 4.244 10.298 3 9 3ZM10.134 8.494C11.342 8.89 12.651 8.892 13.865 8.494 16.48 7.64 17.38 6.508 18.317 8.163 18.709 8.854 19.649 10.5 19.982 11.097 17.128 10.522 14.41 12.513 14.042 15.351 12.809 14.731 11.248 14.704 9.958 15.351 9.589 12.512 6.872 10.522 4.017 11.097 4.431 10.359 5.2 9.016 5.682 8.164 6.618 6.509 7.516 7.638 10.134 8.494ZM17.305 5.319C15.912 5.319 14.445 6.2 13.243 6.593 12.431 6.859 11.558 6.856 10.757 6.593 9.556 6.2 8.088 5.319 6.695 5.319 5.697 5.319 4.737 5.771 3.941 7.178 1.535 11.433-2.22045e-15 13.865-2.22045e-15 16-2.22045e-15 18.761 2.238 21 5 21 9.039 21 9.156 16.877 12 16.877 14.844 16.877 14.961 21 19 21 21.762 21 24 18.761 24 16 24 13.865 22.465 11.433 20.059 7.179 19.262 5.771 18.303 5.319 17.305 5.319ZM19 19C17.346 19 16 17.654 16 16 16 14.346 17.346 13 19 13 20.654 13 22 14.346 22 16 22 17.654 20.654 19 19 19ZM5 19C3.346 19 2 17.654 2 16 2 14.346 3.346 13 5 13 6.654 13 8 14.346 8 16 8 17.654 6.654 19 5 19Z" fill="#002997"/></svg>