<svg width="24" height="24" xmlns="http://www.w3.org/2000/svg" xmlns:xlink="http://www.w3.org/1999/xlink" fill-rule="evenodd" clip-rule="evenodd" overflow="hidden"><path d="M11.492 10.172 8.992 13.236 8.255 12.559 11.992 8 15.745 12.585 14.992 13.25 12.492 10.174 12.492 18 11.492 18 11.492 10.172ZM18.5 20 5.5 20C3.019 20 1 17.982 1 15.5 1 13.322 2.555 11.462 4.698 11.076L5.477 10.936 5.52 10.147C5.705 6.699 8.551 4 12 4 15.449 4 18.295 6.699 18.478 10.147L18.522 10.936 19.302 11.076C21.444 11.462 23 13.322 23 15.5 23 17.982 20.981 20 18.5 20M19.478 10.092C19.266 6.141 16.006 3 12 3 7.994 3 4.733 6.141 4.521 10.092 1.951 10.555 5.32907e-15 12.798 5.32907e-15 15.5 5.32907e-15 18.537 2.463 21 5.5 21L18.5 21C21.537 21 24 18.537 24 15.5 24 12.798 22.049 10.555 19.478 10.092" fill="#FFFFFF"/></svg>